<?xml version="1.0" standalone="no"?>
<!DOCTYPE svg PUBLIC "-//W3C//DTD SVG 20010904//EN"
 "http://www.w3.org/TR/2001/REC-SVG-20010904/DTD/svg10.dtd">
<svg version="1.0" xmlns="http://www.w3.org/2000/svg"
 width="100.000000pt" height="100.000000pt" viewBox="0 0 100.000000 100.000000"
 preserveAspectRatio="xMidYMid meet">
<metadata>
Created by potrace 1.11, written by Peter Selinger 2001-2013
</metadata>
<g transform="translate(0.000000,100.000000) scale(0.100000,-0.100000)"
fill="#000000" stroke="none">
<path d="M365 980 c-97 -31 -146 -61 -216 -130 -105 -104 -156 -236 -146 -379
20 -266 218 -457 482 -466 434 -15 676 495 389 823 -53 61 -135 116 -212 144
-82 29 -218 33 -297 8z m-87 -329 c3 -81 3 -83 22 -66 27 25 91 30 128 11 40
-21 46 -43 46 -186 l1 -115 -40 0 -39 0 -1 113 c-1 128 -11 149 -63 138 -41
-10 -52 -41 -52 -154 l0 -97 -40 0 -40 -1 0 221 0 220 38 0 37 0 3 -84z m318
9 c1 -41 2 -79 3 -83 1 -5 13 1 27 12 41 32 98 28 135 -8 18 -18 29 -40 30
-58 4 -212 4 -223 -11 -225 -17 -1 -51 -1 -62 1 -5 0 -8 50 -8 109 0 127 -9
148 -58 137 -18 -3 -37 -16 -43 -27 -6 -11 -11 -66 -12 -121 l-2 -102 -30 -1
c-16 0 -35 1 -40 3 -6 2 -10 81 -9 216 1 116 2 215 3 218 0 3 18 5 39 4 l37
-1 1 -74z"/>
</g>
</svg>
